HIERARCHY
ROOT hip
{
  OFFSET 0.0 0.0 0.0
  CHANNELS 6 Xposition Yposition Zposition Zrotation Yrotation Xrotation
  JOINT abdomen
  {
    OFFSET 0.0 20.6881 -0.73152
    CHANNELS 3 Zrotation Xrotation Yrotation
    JOINT chest
    {
      OFFSET 0.0 11.7043 -0.48768
      CHANNELS 3 Zrotation Xrotation Yrotation
      JOINT neck
      {
        OFFSET 0.0 22.1894 -2.19456
        CHANNELS 3 Zrotation Xrotation Yrotation
        JOINT head
        {
          OFFSET -0.24384 7.07133 1.2192
          CHANNELS 3 Zrotation Xrotation Yrotation
          JOINT leftEye
          {
            OFFSET 4.14528 8.04674 8.04672
            CHANNELS 3 Zrotation Xrotation Yrotation
            End Site
            {
              OFFSET 1.0 0.0 0.0
            }
          }
          JOINT rightEye
          {
            OFFSET -3.6576 8.04674 8.04672
            CHANNELS 3 Zrotation Xrotation Yrotation
            End Site
            {
              OFFSET 1.0 0.0 0.0
            }
          }
        }
      }
      JOINT rCollar
      {
        OFFSET -2.68224 19.2634 -4.8768
        CHANNELS 3 Zrotation Xrotation Yrotation
        JOINT rShldr
        {
          OFFSET -8.77824 -1.95073 1.46304
          CHANNELS 3 Zrotation Xrotation Yrotation
          JOINT rForeArm
          {
            OFFSET -28.1742 -1.7115 0.48768
            CHANNELS 3 Zrotation Xrotation Yrotation
            JOINT rHand
            {
              OFFSET -22.5879 0.773209 7.07136
              CHANNELS 3 Zrotation Xrotation Yrotation
              JOINT rThumb1
              {
                OFFSET -1.2192 -0.487915 3.41376
                CHANNELS 3 Zrotation Xrotation Yrotation
                JOINT rThumb2
                {
                  OFFSET -3.37035 -0.52449 3.41376
                  CHANNELS 3 Zrotation Xrotation Yrotation
                  End Site
                  {
                    OFFSET -1.78271 -1.18214 1.43049
                  }
                }
              }
              JOINT rIndex1
              {
                OFFSET -7.75947 0.938293 5.60832
                CHANNELS 3 Zrotation Xrotation Yrotation
                JOINT rIndex2
                {
                  OFFSET -2.54057 -0.884171 1.56538
                  CHANNELS 3 Zrotation Xrotation Yrotation
                  End Site
                  {
                    OFFSET -1.62519 -0.234802 1.16502
                  }
                }
              }
              JOINT rMid1
              {
                OFFSET -8.24714 1.18213 3.41376
                CHANNELS 3 Zrotation Xrotation Yrotation
                JOINT rMid2
                {
                  OFFSET -3.10165 -0.590103 1.0647
                  CHANNELS 3 Zrotation Xrotation Yrotation
                  End Site
                  {
                    OFFSET -2.48547 -0.328903 0.83742
                  }
                }
              }
              JOINT rRing1
              {
                OFFSET -8.82822 0.546677 1.51678
                CHANNELS 3 Zrotation Xrotation Yrotation
                JOINT rRing2
                {
                  OFFSET -2.60934 -0.819778 -0.0198488
                  CHANNELS 3 Zrotation Xrotation Yrotation
                  End Site
                  {
                    OFFSET -2.33842 -0.294052 0.168128
                  }
                }
              }
              JOINT rPinky1
              {
                OFFSET -8.27202 -0.0477905 -0.4584
                CHANNELS 3 Zrotation Xrotation Yrotation
                JOINT rPinky2
                {
                  OFFSET -1.82734 -0.647385 -0.700984
                  CHANNELS 3 Zrotation Xrotation Yrotation
                  End Site
                  {
                    OFFSET -1.69225 -0.51767 -0.607171
                  }
                }
              }
            }
          }
        }
      }
      JOINT lCollar
      {
        OFFSET 2.68224 19.2634 -4.8768
        CHANNELS 3 Zrotation Xrotation Yrotation
        JOINT lShldr
        {
          OFFSET 8.77824 -1.95073 1.46304
          CHANNELS 3 Zrotation Xrotation Yrotation
          JOINT lForeArm
          {
            OFFSET 28.1742 -1.7115 0.48768
            CHANNELS 3 Zrotation Xrotation Yrotation
            JOINT lHand
            {
              OFFSET 22.5879 0.773209 7.07136
              CHANNELS 3 Zrotation Xrotation Yrotation
              JOINT lThumb1
              {
                OFFSET 1.2192 -0.487915 3.41376
                CHANNELS 3 Zrotation Xrotation Yrotation
                JOINT lThumb2
                {
                  OFFSET 3.37035 -0.52449 3.41376
                  CHANNELS 3 Zrotation Xrotation Yrotation
                  End Site
                  {
                    OFFSET 1.78271 -1.18214 1.43049
                  }
                }
              }
              JOINT lIndex1
              {
                OFFSET 7.75947 0.938293 5.60832
                CHANNELS 3 Zrotation Xrotation Yrotation
                JOINT lIndex2
                {
                  OFFSET 2.54057 -0.884171 1.56538
                  CHANNELS 3 Zrotation Xrotation Yrotation
                  End Site
                  {
                    OFFSET 1.62519 -0.234802 1.16502
                  }
                }
              }
              JOINT lMid1
              {
                OFFSET 8.24714 1.18213 3.41376
                CHANNELS 3 Zrotation Xrotation Yrotation
                JOINT lMid2
                {
                  OFFSET 3.10165 -0.590103 1.0647
                  CHANNELS 3 Zrotation Xrotation Yrotation
                  End Site
                  {
                    OFFSET 2.48547 -0.328903 0.83742
                  }
                }
              }
              JOINT lRing1
              {
                OFFSET 8.82822 0.546677 1.51678
                CHANNELS 3 Zrotation Xrotation Yrotation
                JOINT lRing2
                {
                  OFFSET 2.60934 -0.819778 -0.0198488
                  CHANNELS 3 Zrotation Xrotation Yrotation
                  End Site
                  {
                    OFFSET 2.33842 -0.294052 0.168128
                  }
                }
              }
              JOINT lPinky1
              {
                OFFSET 8.27202 -0.0477905 -0.4584
                CHANNELS 3 Zrotation Xrotation Yrotation
                JOINT lPinky2
                {
                  OFFSET 1.82734 -0.647385 -0.700984
                  CHANNELS 3 Zrotation Xrotation Yrotation
                  End Site
                  {
                    OFFSET 1.69225 -0.51767 -0.607171
                  }
                }
              }
            }
          }
        }
      }
    }
  }
  JOINT rButtock
  {
    OFFSET -8.77824 4.35084 1.2192
    CHANNELS 3 Zrotation Xrotation Yrotation
    JOINT rThigh
    {
      OFFSET 0.0 -1.70687 -2.19456
      CHANNELS 3 Zrotation Xrotation Yrotation
      JOINT rShin
      {
        OFFSET 0.0 -36.8199 0.73152
        CHANNELS 3 Zrotation Xrotation Yrotation
        JOINT rFoot
        {
          OFFSET 0.73152 -45.1104 -5.12064
          CHANNELS 3 Zrotation Xrotation Yrotation
          End Site
          {
            OFFSET -1.1221 -3.69964 12.103
          }
        }
      }
    }
  }
  JOINT lButtock
  {
    OFFSET 8.77824 4.35084 1.2192
    CHANNELS 3 Zrotation Xrotation Yrotation
    JOINT lThigh
    {
      OFFSET 0.0 -1.70687 -2.19456
      CHANNELS 3 Zrotation Xrotation Yrotation
      JOINT lShin
      {
        OFFSET 0.0 -36.8199 0.73152
        CHANNELS 3 Zrotation Xrotation Yrotation
        JOINT lFoot
        {
          OFFSET -0.73152 -45.1104 -5.12064
          CHANNELS 3 Zrotation Xrotation Yrotation
          End Site
          {
            OFFSET 1.1221 -3.69964 12.103
          }
        }
      }
    }
  }
}
MOTION
Frames: 8
Frame Time: 0.00833333
138.234 57.3532 -29.3004 22.9606 -83.7914 -9.2097 0.928108 40.0242 -5.63276 -2.05085 -10.9999 -1.76092 2.67159 11.5358 0.0548773 -0.232701 -55.7053 -1.67497 -0.0 0.0 0.0 -0.0 0.0 0.0 -6.22251e-14 1.42237e-12 6.23438e-14 71.2075 27.5003 15.6537 -19.646 -12.5731 37.8271 -0.116721 -9.69555 -1.37591 2.75943e-10 -1.31556e-09 7.74702e-10 4.65576e-10 -2.28183e-09 1.34555e-09 2.75945e-10 -1.31555e-09 7.7469e-10 7.73091 5.47488 0.417314 2.75939e-10 -1.31556e-09 7.74715e-10 2.90554 0.965183 0.102902 2.75949e-10 -1.31556e-09 7.74701e-10 10.2786 0.731801 0.0259123 2.75939e-10 -1.31556e-09 7.74712e-10 2.22167 -0.733487 -0.20892 -6.23145e-14 1.42237e-12 6.21171e-14 -70.6852 25.7154 -11.9904 19.1896 -12.0256 -36.7471 1.00214 -27.1959 4.14125 9.96388e-10 -5.91707e-10 -6.61629e-10 1.73718e-09 -1.01319e-09 -1.12567e-09 9.96382e-10 -5.91704e-10 -6.61615e-10 -7.73091 5.47488 -0.417314 9.96387e-10 -5.91707e-10 -6.61628e-10 -2.90554 0.965183 -0.102902 9.96377e-10 -5.91707e-10 -6.61629e-10 -10.2786 0.731801 -0.0259123 9.96392e-10 -5.91708e-10 -6.61639e-10 -2.22167 -0.733487 0.20892 -2.03217e-16 0.0 -3.88251e-19 -2.23332 -74.2888 1.99698 -1.98403 71.1165 3.15184 -4.88675 -13.0582 -15.1698 2.03217e-16 0.0 3.88251e-19 8.50442 -45.9177 8.23807 174.12 79.6161 -176.224 1.37664 6.53497 -2.26675
137.517 57.3868 -29.4419 22.8847 -83.6818 -9.1982 0.706719 40.137 -5.66941 -2.04875 -11.0536 -1.79347 2.6476 11.5527 0.0393447 -0.0277196 -55.648 -1.59284 -0.0 0.0 0.0 -0.0 0.0 0.0 -3.80218e-14 -1.98855e-13 1.67723e-16 71.1253 27.5345 15.6684 -19.7162 -12.659 37.9951 -0.118902 -9.78487 -1.38884 9.33902e-10 -2.88588e-10 2.92368e-10 1.61112e-09 -5.05433e-10 5.14677e-10 9.33905e-10 -2.88587e-10 2.92358e-10 7.73091 5.47488 0.417314 9.33899e-10 -2.88591e-10 2.9238e-10 2.90554 0.965183 0.102902 9.3391e-10 -2.88587e-10 2.92369e-10 10.2786 0.731801 0.0259123 9.33897e-10 -2.88587e-10 2.92382e-10 2.22167 -0.733487 -0.20892 -3.80768e-14 -1.98855e-13 -4.23127e-17 -70.6747 25.6738 -11.9646 19.2371 -12.0816 -36.8588 1.00064 -27.1774 4.13796 5.51053e-10 -1.5167e-10 -3.8497e-10 9.58093e-10 -2.60411e-10 -6.55614e-10 5.51047e-10 -1.51667e-10 -3.84959e-10 -7.73091 5.47488 -0.417314 5.51054e-10 -1.51669e-10 -3.84969e-10 -2.90554 0.965183 -0.102902 5.51044e-10 -1.51669e-10 -3.84969e-10 -10.2786 0.731801 -0.0259123 5.51058e-10 -1.5167e-10 -3.84978e-10 -2.22167 -0.733487 0.20892 -2.03217e-16 0.0 -3.88251e-19 -1.61283 -73.868 2.66533 -2.04326 71.5861 3.2538 -5.09998 -13.7032 -15.3293 2.03217e-16 0.0 3.88251e-19 8.82711 -47.026 8.442 174.591 78.4967 -176.698 1.42999 7.23875 -2.35231
136.83 57.3856 -29.583 22.63 -83.5925 -9.0092 0.572744 40.2456 -5.69638 -2.05541 -11.0834 -1.81708 2.61798 11.5753 0.021538 0.180382 -55.6017 -1.51339 -0.0 0.0 0.0 -0.0 0.0 0.0 -1.31016e-14 -1.14901e-12 -3.926e-14 71.0499 27.56 15.6739 -19.7842 -12.7427 38.1585 -0.12137 -9.88526 -1.40337 1.18323e-09 2.57571e-10 2.45221e-11 2.04649e-09 4.39753e-10 5.22239e-11 1.18323e-09 2.57571e-10 2.45125e-11 7.73091 5.47488 0.417314 1.18323e-09 2.57569e-10 2.45316e-11 2.90554 0.965183 0.102902 1.18324e-09 2.57571e-10 2.45237e-11 10.2786 0.731801 0.0259123 1.18322e-09 2.57572e-10 2.4538e-11 2.22167 -0.733487 -0.20892 -1.31389e-14 -1.14901e-12 -3.94588e-14 -70.641 25.6543 -11.9632 19.2866 -12.1402 -36.9751 1.00152 -27.1885 4.13992 2.3815e-10 4.24314e-11 -2.30956e-10 4.12895e-10 7.00931e-11 -3.95254e-10 2.38144e-10 4.24334e-11 -2.30946e-10 -7.73091 5.47488 -0.417314 2.38152e-10 4.24324e-11 -2.30956e-10 -2.90554 0.965183 -0.102902 2.38142e-10 4.24321e-11 -2.30954e-10 -10.2786 0.731801 -0.0259123 2.38155e-10 4.24326e-11 -2.30962e-10 -2.22167 -0.733487 0.20892 -2.03217e-16 0.0 -3.88251e-19 -0.964389 -73.4714 3.28719 -2.11184 72.0581 3.35343 -5.30992 -14.352 -15.4831 2.03217e-16 0.0 3.88251e-19 9.19352 -48.2162 8.70136 174.922 77.5168 -177.017 1.4366 7.32726 -2.36849
136.168 57.3581 -29.7242 22.1787 -83.5123 -8.6249 0.563391 40.3466 -5.71562 -2.07446 -11.0814 -1.8294 2.5806 11.6081 0.00122903 0.401436 -55.576 -1.4318 -0.0 0.0 0.0 -0.0 0.0 0.0 1.79029e-14 -1.20079e-12 -5.04494e-14 70.9856 27.5722 15.6655 -19.8519 -12.8266 38.3213 -0.124259 -10.0012 -1.42017 7.92546e-10 6.77971e-11 7.83667e-11 1.36973e-09 1.12793e-10 1.42065e-10 7.92549e-10 6.77969e-11 7.83581e-11 7.73091 5.47488 0.417314 7.92545e-10 6.77957e-11 7.83732e-11 2.90554 0.965183 0.102902 7.92555e-10 6.77963e-11 7.83684e-11 10.2786 0.731801 0.0259123 7.92539e-10 6.77975e-11 7.83821e-11 2.22167 -0.733487 -0.20892 1.78608e-14 -1.20079e-12 -5.06435e-14 -70.5758 25.6677 -11.9935 19.3406 -12.2046 -37.1019 1.00596 -27.2432 4.14966 1.14282e-10 -1.76565e-10 -2.8213e-10 2.02759e-10 -3.09443e-10 -4.86379e-10 1.14276e-10 -1.76564e-10 -2.82121e-10 -7.73091 5.47488 -0.417314 1.14284e-10 -1.76565e-10 -2.82134e-10 -2.90554 0.965183 -0.102902 1.14276e-10 -1.76564e-10 -2.82128e-10 -10.2786 0.731801 -0.0259123 1.14286e-10 -1.76564e-10 -2.82135e-10 -2.22167 -0.733487 0.20892 -2.03217e-16 0.0 -3.88251e-19 -0.267672 -73.115 3.85614 -2.19118 72.534 3.44798 -5.5109 -15.0078 -15.6189 2.03217e-16 0.0 3.88251e-19 9.63465 -49.4998 9.0348 175.153 76.6838 -177.219 1.37503 6.57014 -2.27141
135.517 57.3137 -29.8649 21.5676 -83.4457 -8.0834 0.637862 40.4456 -5.72678 -2.09942 -11.0567 -1.83353 2.53942 11.6506 -0.0212184 0.633506 -55.5683 -1.34879 -0.0 0.0 0.0 -0.0 0.0 0.0 5.61641e-14 -8.25801e-13 -4.90128e-14 70.9291 27.5732 15.646 -19.9196 -12.9111 38.4847 -0.127435 -10.1266 -1.43835 -2.66637e-11 -5.87457e-10 3.23685e-10 -5.14128e-11 -1.01865e-09 5.6025e-10 -2.66611e-11 -5.87458e-10 3.23677e-10 7.73091 5.47488 0.417314 -2.66639e-11 -5.87458e-10 3.23687e-10 2.90554 0.965183 0.102902 -2.66556e-11 -5.87459e-10 3.23686e-10 10.2786 0.731801 0.0259123 -2.66713e-11 -5.87457e-10 3.23698e-10 2.22167 -0.733487 -0.20892 5.61033e-14 -8.25801e-13 -4.92054e-14 -70.4857 25.7071 -12.045 19.4005 -12.2762 -37.2432 1.01312 -27.3308 4.16529 9.46735e-11 -6.81224e-10 -4.69893e-10 1.78487e-10 -1.18044e-09 -8.11912e-10 9.46678e-11 -6.81222e-10 -4.69884e-10 -7.73091 5.47488 -0.417314 9.46753e-11 -6.81226e-10 -4.69902e-10 -2.90554 0.965183 -0.102902 9.4669e-11 -6.81223e-10 -4.69891e-10 -10.2786 0.731801 -0.0259123 9.46771e-11 -6.81222e-10 -4.69897e-10 -2.22167 -0.733487 0.20892 -2.03217e-16 0.0 -3.88251e-19 0.457991 -72.7905 4.38248 -2.27929 73.0142 3.53784 -5.70411 -15.6676 -15.7389 2.03217e-16 0.0 3.88251e-19 10.1436 -50.8764 9.45288 175.323 75.965 -177.347 1.26 5.10414 -2.05921
134.867 57.2516 -30.0031 20.8588 -83.3875 -7.4506 0.742729 40.5463 -5.72557 -2.12689 -11.0199 -1.83241 2.49627 11.6933 -0.0455716 0.856274 -55.5586 -1.2744 -0.0 0.0 0.0 -0.0 0.0 0.0 8.87262e-14 -1.81791e-13 -3.55933e-14 70.8738 27.5717 15.6233 -19.9832 -12.9907 38.6386 -0.130763 -10.2559 -1.45712 -9.12422e-10 -1.33701e-09 6.16931e-10 -1.58833e-09 -2.31322e-09 1.06103e-09 -9.1242e-10 -1.33701e-09 6.16924e-10 7.73091 5.47488 0.417314 -9.12422e-10 -1.33701e-09 6.1693e-10 2.90554 0.965183 0.102902 -9.12415e-10 -1.33701e-09 6.16932e-10 10.2786 0.731801 0.0259123 -9.12431e-10 -1.33701e-09 6.16942e-10 2.22167 -0.733487 -0.20892 8.8639e-14 -1.81791e-13 -3.57875e-14 -70.3845 25.7531 -12.109 19.4593 -12.3468 -37.3827 1.02108 -27.4276 4.18259 1.15548e-10 -1.19101e-09 -6.59973e-10 2.24331e-10 -2.05936e-09 -1.14064e-09 1.15543e-10 -1.19101e-09 -6.59964e-10 -7.73091 5.47488 -0.417314 1.1555e-10 -1.19101e-09 -6.59987e-10 -2.90554 0.965183 -0.102902 1.15546e-10 -1.19101e-09 -6.59972e-10 -10.2786 0.731801 -0.0259123 1.15551e-10 -1.19101e-09 -6.59977e-10 -2.22167 -0.733487 0.20892 -2.03217e-16 0.0 -3.88251e-19 1.20322 -72.4689 4.89405 -2.37383 73.4946 3.62836 -5.90061 -16.327 -15.8688 2.03217e-16 0.0 3.88251e-19 10.6895 -52.3176 9.93617 175.446 75.369 -177.417 1.13984 3.34461 -1.8345
134.209 57.1838 -30.1377 20.1143 -83.3366 -6.7916 0.824526 40.6523 -5.70767 -2.15345 -10.9816 -1.829 2.45295 11.7266 -0.0715943 1.04925 -55.5271 -1.21881 -0.0 0.0 0.0 -0.0 0.0 0.0 1.02634e-13 5.73506e-13 -1.08338e-14 70.8128 27.5765 15.6058 -20.0383 -13.06 38.7729 -0.134094 -10.3837 -1.47569 -1.50275e-09 -1.80967e-09 8.14562e-10 -2.61241e-09 -3.12954e-09 1.39866e-09 -1.50275e-09 -1.80967e-09 8.14556e-10 7.73091 5.47488 0.417314 -1.50275e-09 -1.80967e-09 8.14559e-10 2.90554 0.965183 0.102902 -1.50275e-09 -1.80967e-09 8.14563e-10 10.2786 0.731801 0.0259123 -1.50276e-09 -1.80967e-09 8.14572e-10 2.22167 -0.733487 -0.20892 1.02519e-13 5.73506e-13 -1.10325e-14 -70.286 25.7862 -12.1769 19.5103 -12.408 -37.5039 1.02788 -27.5097 4.19729 1.13131e-10 -1.42538e-09 -7.18099e-10 2.24546e-10 -2.46264e-09 -1.24133e-09 1.13126e-10 -1.42538e-09 -7.1809e-10 -7.73091 5.47488 -0.417314 1.13132e-10 -1.42538e-09 -7.18115e-10 -2.90554 0.965183 -0.102902 1.13129e-10 -1.42538e-09 -7.18098e-10 -10.2786 0.731801 -0.0259123 1.13133e-10 -1.42537e-09 -7.18102e-10 -2.22167 -0.733487 0.20892 -2.03217e-16 0.0 -3.88251e-19 1.95306 -72.1211 5.41344 -2.47301 73.9716 3.72541 -6.11267 -16.9809 -16.0346 2.03217e-16 0.0 3.88251e-19 11.2374 -53.7954 10.4621 175.528 74.9043 -177.439 1.04698 1.70756 -1.69679
133.543 57.1044 -30.2693 19.3728 -83.2965 -6.1452 0.884522 40.7616 -5.6688 -2.18161 -10.9405 -1.82231 2.40731 11.7477 -0.10165 1.21051 -55.4625 -1.18769 -0.0 0.0 0.0 -0.0 0.0 0.0 8.72449e-14 1.67956e-12 3.87071e-14 70.7439 27.5904 15.5912 -20.0851 -13.119 38.8871 -0.137607 -10.5175 -1.49514 -1.69229e-09 -1.90652e-09 8.94375e-10 -2.94075e-09 -3.29691e-09 1.53565e-09 -1.69229e-09 -1.90652e-09 8.94369e-10 7.73091 5.47488 0.417314 -1.69229e-09 -1.90652e-09 8.94373e-10 2.90554 0.965183 0.102902 -1.69229e-09 -1.90652e-09 8.94377e-10 10.2786 0.731801 0.0259123 -1.6923e-09 -1.90652e-09 8.94386e-10 2.22167 -0.733487 -0.20892 8.70887e-14 1.67956e-12 3.84971e-14 -70.1863 25.8086 -12.2549 19.5506 -12.4568 -37.6001 1.03338 -27.576 4.20919 6.73052e-11 -1.23374e-09 -5.6285e-10 1.414e-10 -2.13007e-09 -9.73449e-10 6.73007e-11 -1.23375e-09 -5.62842e-10 -7.73091 5.47488 -0.417314 6.73066e-11 -1.23375e-09 -5.62863e-10 -2.90554 0.965183 -0.102902 6.73024e-11 -1.23375e-09 -5.62849e-10 -10.2786 0.731801 -0.0259123 6.73057e-11 -1.23374e-09 -5.62852e-10 -2.22167 -0.733487 0.20892 -2.03217e-16 0.0 -3.88251e-19 2.71761 -71.7478 5.94751 -2.57808 74.4493 3.83146 -6.34333 -17.6292 -16.24 2.03217e-16 0.0 3.88251e-19 11.8194 -55.3237 11.0597 175.572 74.5627 -177.417 0.977409 0.213564 -1.69312
